<svg width="20" height="20" viewBox="0 0 20 20" fill="none" xmlns="http://www.w3.org/2000/svg">
<g id="location-solid">
<g id="Icon Location">
<path id="Vector" d="M10 0C6.14012 0 3 3.31421 3 7.38809C3 8.72925 3.56988 10.1717 3.59376 10.2325C3.77782 10.6936 4.141 11.4098 4.40288 11.8296L9.20241 19.505C9.39882 19.8196 9.68953 20 10 20C10.3105 20 10.6012 19.8196 10.7976 19.5054L15.5975 11.8296C15.8598 11.4098 16.2226 10.6936 16.4066 10.2325C16.4305 10.1721 17 8.72968 17 7.38809C17 3.31421 13.8599 0 10 0ZM15.6474 9.89526C15.4831 10.3086 15.145 10.9748 14.9099 11.3512L10.1099 19.0269C10.0152 19.1786 9.98518 19.1786 9.89047 19.0269L5.09053 11.3512C4.85541 10.9748 4.51735 10.3081 4.35306 9.89483C4.34606 9.87701 3.82353 8.54933 3.82353 7.38809C3.82353 3.79357 6.59429 0.869187 10 0.869187C13.4057 0.869187 16.1765 3.79357 16.1765 7.38809C16.1765 8.55106 15.6527 9.88222 15.6474 9.89526Z" fill="#ADADAD"/>
<path id="Subtract" fill-rule="evenodd" clip-rule="evenodd" d="M16.2647 5.50005C17.9821 8.21892 13.2143 15.0446 10.7775 18.5332L10.7775 18.5332C10.5255 18.8939 10.2985 19.2189 10.1061 19.5L5.84247 13C0.536633 5.8 5.52668 1.6667 8.68494 0.500047C13.2328 -0.699943 15.6331 3.33338 16.2647 5.50005ZM6.29419 7.38839C6.29419 5.23194 7.95649 3.47705 10.0001 3.47705C12.0437 3.47705 13.706 5.23194 13.706 7.38839C13.706 9.54485 12.0437 11.2997 10.0001 11.2997C7.95649 11.2997 6.29419 9.54485 6.29419 7.38839Z" fill="#ADADAD"/>
</g>
</g>
</svg>
